Coordinates
version=1
nRows=6
nColumns=36
inDegrees=yes

Units are S.I. units (second, meters, Newtons, ...)
If the header above contains a line with 'inDegrees', this indicates whether rotational values are in degrees (yes) or radians (no).

endheader
time	pelvis_tilt	pelvis_list	pelvis_rotation	pelvis_tx	pelvis_ty	pelvis_tz	hip_flexion_r	hip_adduction_r	hip_rotation_r	knee_angle_r	knee_angle_r_beta	ankle_angle_r	subtalar_angle_r	mtp_angle_r	hip_flexion_l	hip_adduction_l	hip_rotation_l	knee_angle_l	knee_angle_l_beta	ankle_angle_l	subtalar_angle_l	mtp_angle_l	lumbar_extension	lumbar_bending	lumbar_rotation	arm_flex_r	arm_add_r	arm_rot_r	elbow_flex_r	pro_sup_r	arm_flex_l	arm_add_l	arm_rot_l	elbow_flex_l	pro_sup_l
      4.68333330	      5.79399848	     -0.83294335	      1.29637744	      1.59156699	      0.95128613	     -0.19065457	     46.98750505	      3.51346580	      2.66512910	     36.55515076	      0.63800774	      8.78469102	      4.34699469	     -7.49999987	     -1.39336517	      2.32293739	    -11.80423069	     14.31935463	      0.24991988	     13.26809037	     -3.48133121	     -7.49999987	    -16.65493359	     -0.76490768	     -2.77693374	     48.04374160	      3.64266847	     64.48401696	    117.78460379	     90.33746092	     56.93409517	     -9.06821684	     66.58544861	    115.00369202	     98.00673157
      4.70000000	      5.87811411	     -1.37609554	      1.64834960	      1.59570128	      0.94992796	     -0.19466483	     46.06046081	      3.58584194	      2.28944208	     36.29749006	      0.63351071	      8.90301687	      4.17353694	     -7.49999987	     -2.50195393	      2.06334841	    -11.57840567	     12.88420399	      0.22487178	     12.99104045	     -3.02956672	     -7.49999987	    -15.54531816	      0.00113732	     -3.22680906	     47.11466893	      3.43259332	     65.09734441	    118.59488438	     90.38135523	     55.75289987	     -8.79184474	     66.60594055	    114.98470863	     97.99574101
      4.71666670	      6.81282703	     -2.30744755	      1.89587823	      1.59989914	      0.94846971	     -0.19827997	     43.75896121	      4.02264706	      1.82303054	     35.57126490	      0.62083569	      8.92694128	      3.87184027	     -7.49999987	     -4.63472188	      1.42373277	    -11.26445125	     11.27865493	      0.19684966	     12.30857869	     -2.99706128	     -7.49999987	    -15.49312494	      1.40303369	     -3.32370409	     46.80293188	      2.92554208	     65.72265102	    119.68707410	     89.67823867	     54.06942473	     -8.20870203	     65.04605247	    114.98001979	     97.20543934
      4.73333330	      6.96169581	     -3.11273471	      2.06260709	      1.60807678	      0.94808343	     -0.19973506	     42.24373918	      4.50594870	      1.53465117	     35.35106275	      0.61699244	      9.16719958	      3.28810025	     -7.49999987	     -5.99339614	      0.87055696	    -11.27646646	      9.73376646	      0.16988627	     12.51236751	     -1.75614998	     -7.49999987	    -14.30438282	      2.59411400	     -3.19052159	     45.47606878	      2.51016268	     65.72139915	    120.24733529	     89.90442283	     51.98475103	     -7.88599758	     64.32985746	    115.07721120	     97.45283515
      4.75000000	      7.16431285	     -3.66331618	      2.28464176	      1.60872959	      0.94763283	     -0.20051910	     40.87527984	      4.73680989	      1.29527885	     35.22559415	      0.61480260	      8.77226608	      2.84524076	     -7.49999987	     -7.07588938	      0.60454107	    -10.82989232	      8.42562240	      0.14705485	     12.30584137	     -1.27047131	     -7.49999987	    -13.36198183	      3.37286842	     -3.20979833	     44.41317214	      2.24134482	     65.55757592	    120.24585867	     89.99067823	     50.53570377	     -7.71885548	     64.04480076	    115.23638319	     97.56044685
      4.76666670	      7.49891803	     -4.12745025	      2.46848476	      1.60852019	      0.94498843	     -0.20191072	     39.43854211	      4.92895340	      1.25890878	     35.27926188	      0.61573928	      8.55011430	      2.33649012	     -7.49999987	     -7.84782010	      0.34460326	    -10.34060336	      7.76952092	      0.13560372	     12.41693441	     -1.04447746	     -7.49999987	    -12.86689196	      3.96558272	     -3.22771969	     43.83524498	      2.06676317	     65.04341210	    120.13364003	     90.13255454	     49.41974043	     -7.44507588	     63.38930976	    115.22063063	     97.74735625
